<svg width="175" height="42" viewBox="0 0 175 42" fill="none" xmlns="http://www.w3.org/2000/svg">
<path d="M12.9258 12.3487C9.66752 11.2718 6.57033 11.0744 4.422 12.5641C3.43734 13.2462 2.59591 14.1256 1.9335 15.1667C1.289 16.1897 0.787724 17.3385 0.465473 18.5769C0.143222 19.7974 0 20.982 0 22.0949C0 23.2974 0.143222 24.5179 0.44757 25.7205C0.751918 26.941 1.23529 28.0538 1.8798 29.059C2.5422 30.0641 3.38363 30.9077 4.38619 31.5359C5.42455 32.182 6.65985 32.5231 8.03836 32.5231H8.32481C9.48849 32.5231 10.5627 32.3436 11.5115 32.0026C12.1918 31.7513 12.8721 31.4282 13.5524 31.0333C13.5524 31.1051 13.5524 31.159 13.5524 31.2308C13.5524 31.5718 13.5524 31.9667 13.5345 32.3974C13.5166 32.8282 13.4987 33.2769 13.445 33.7256C13.4092 34.1744 13.3376 34.6051 13.266 35C13.1944 35.359 13.087 35.6641 12.9437 35.9154C12.6752 36.4359 12.3171 36.8308 11.8338 37.1538C11.3146 37.4949 10.7596 37.7641 10.1509 37.9615C9.5243 38.159 8.86189 38.3205 8.19949 38.4282C7.50128 38.5359 6.83888 38.6436 6.24808 38.7333L5.56778 38.8231L6.31969 42L6.83887 41.982C7.6624 41.9461 8.55754 41.8564 9.48849 41.6949C10.4373 41.5333 11.3683 41.2641 12.2634 40.9051C13.1765 40.5462 14.0179 40.0615 14.7877 39.4872C15.5754 38.8949 16.2199 38.159 16.6675 37.3333C17.1688 36.4 17.491 35.2333 17.6343 33.8692C17.7596 32.559 17.8312 31.3205 17.8312 30.1538L17.867 15.3103L17.6522 15.1128C16.2379 13.8564 14.6445 12.9231 12.9258 12.3487ZM13.445 16.3333V27.4436C12.7468 27.8564 12.0486 28.2333 11.3504 28.5923C10.6522 28.9513 9.86445 29.1308 8.98721 29.1308C8.18159 29.1308 7.55499 28.9333 7.03581 28.5205C6.48082 28.0718 6.03325 27.5154 5.69309 26.8333C5.33504 26.1513 5.0844 25.3795 4.94118 24.5538C4.79795 23.7103 4.70844 22.9026 4.70844 22.2026C4.70844 21.4667 4.78005 20.641 4.94118 19.7615C5.0844 18.9 5.35294 18.0923 5.7289 17.3564C6.08696 16.6564 6.55243 16.0462 7.12532 15.5974C7.6624 15.1667 8.34271 14.9513 9.20205 14.9513C10.0614 14.9513 10.8312 15.0949 11.4936 15.382C12.1202 15.6154 12.7647 15.9385 13.445 16.3333Z" fill="#F4F4F4"/>
<path d="M38.6525 17.841C38.2228 16.6205 37.6141 15.5257 36.8264 14.5923C36.0387 13.641 35.054 12.8872 33.9082 12.3128C33.6397 12.1872 33.3533 12.0616 33.0668 11.9539C32.118 11.6128 31.0796 11.4333 29.9696 11.4333C28.8417 11.4333 27.8213 11.6128 26.8724 11.9539C26.6039 12.0616 26.3354 12.1692 26.0668 12.2949C24.9389 12.8692 23.9543 13.6231 23.1487 14.5744C22.343 15.5077 21.7343 16.6026 21.3226 17.841C20.9108 19.0616 20.7139 20.3539 20.7139 21.6821C20.7139 23.0282 20.8929 24.3744 21.251 25.6487C21.609 26.941 22.1819 28.1077 22.9517 29.1308C23.7215 30.1539 24.6883 30.9795 25.8341 31.6077C26.1563 31.7872 26.5144 31.9308 26.8724 32.0564C27.7855 32.3795 28.8059 32.541 29.9338 32.541C31.0796 32.541 32.118 32.3616 33.0668 32.0385C33.407 31.9128 33.7471 31.7692 34.0694 31.6077C35.2331 30.9975 36.2356 30.1539 37.0054 29.1308C37.7752 28.1257 38.3481 26.959 38.7241 25.6487C39.0105 24.6436 39.1896 23.6205 39.2612 22.5616V20.9103C39.2075 19.8692 39.0105 18.8282 38.6525 17.841Z" fill="#060606"/>
<path d="M54.8539 1.48974V12.0974C54.1915 11.8282 53.5291 11.6128 52.8846 11.4333C51.9178 11.1821 50.8794 11.0385 49.8232 11.0385C48.4089 11.0385 47.1557 11.3615 46.0815 12.0256C45.0252 12.6538 44.148 13.4974 43.4498 14.5205C42.7695 15.5256 42.2503 16.6744 41.8922 17.9128C41.5521 19.1513 41.373 20.3897 41.373 21.5923C41.373 22.759 41.5163 23.9795 41.8206 25.1821C42.125 26.4205 42.6083 27.5513 43.2707 28.5564C43.9331 29.5795 44.7925 30.4231 45.795 31.0872C46.8334 31.7513 48.0687 32.0923 49.483 32.0923C51.3091 32.0923 53.0278 31.7692 54.6032 31.141C56.1429 30.5128 57.6109 29.6692 58.9536 28.6282L59.2043 28.4308L59.1505 0L54.8539 1.48974ZM50.4319 28.9333C49.6262 28.9333 48.9638 28.7179 48.4268 28.2692C47.8539 27.8026 47.3884 27.1923 47.0303 26.5103C46.6723 25.7923 46.4216 25.0026 46.2605 24.1769C46.1173 23.3333 46.0278 22.5256 46.0278 21.8256C46.0278 21.0897 46.1173 20.2641 46.2784 19.3667C46.4395 18.4872 46.7081 17.6615 47.0661 16.9077C47.4063 16.1897 47.8897 15.5795 48.4805 15.0769C49.0354 14.6282 49.7158 14.3949 50.5751 14.3949C51.4344 14.4308 52.2222 14.5744 52.8846 14.8615C53.5112 15.1308 54.1736 15.4538 54.836 15.8487V27.4436C54.3347 27.7667 53.726 28.0718 52.992 28.3949C52.1863 28.7538 51.327 28.9333 50.4319 28.9333Z" fill="#F4F4F4"/>
<path d="M75.4242 27.6231C74.9946 27.8923 74.4933 28.1436 73.9025 28.3769C73.2222 28.6641 72.5061 28.8256 71.7541 28.8436H71.6288C70.4472 28.8436 69.4984 28.5205 68.6928 27.8564C67.905 27.1923 67.5112 26.241 67.5112 24.9487V10.7872L63.0176 12.2949V26.0077C63.0176 27.0667 63.2324 28 63.6621 28.7538C64.0738 29.5077 64.6288 30.1359 65.2733 30.6385C65.9178 31.1231 66.6519 31.5 67.4396 31.7333C68.2094 31.9667 68.9971 32.0923 69.7848 32.0923C71.7183 32.0923 73.5086 31.8051 75.1199 31.2308C76.7132 30.6564 78.1992 29.8846 79.5777 28.8974L79.8462 28.7V11.4154H75.4242V27.6231Z" fill="#F4F4F4"/>
<path d="M99.038 14.3231C98.3577 13.3718 97.4805 12.6 96.46 12.0256C95.4216 11.4513 94.2042 11.1282 92.7899 11.0564H92.5035C91.483 11.0564 90.4984 11.2 89.6032 11.5051C88.9766 11.7205 88.3321 11.9897 87.7055 12.2949V0.053833L83.373 1.52563V28.4487L83.5521 28.6282C84.2145 29.2923 84.9485 29.8667 85.7004 30.2974C86.4344 30.7282 87.4012 31.1231 88.547 31.482C89.5495 31.8051 90.7669 32.0025 92.1454 32.0923V32.1461L92.9511 32.1641C94.1863 32.1641 95.3321 31.8769 96.3347 31.3025C97.373 30.7102 98.2324 29.8846 98.9306 28.8615C99.593 27.8564 100.112 26.6718 100.488 25.3615C100.846 24.0513 101.025 22.6692 101.025 21.2333C101.025 19.9769 100.864 18.7384 100.542 17.5538C100.22 16.3513 99.7004 15.2564 99.038 14.3231ZM92.2707 28.7179C91.6621 28.7359 91.0713 28.7 90.5342 28.5923C89.9792 28.4846 89.4958 28.359 89.084 28.1974C88.6723 28.0359 88.3142 27.8743 88.0278 27.6949C87.8846 27.6231 87.795 27.5513 87.7413 27.4974L87.7055 15.6333C88.1531 15.382 88.7439 15.1308 89.4779 14.8615C90.3193 14.5384 91.1966 14.4128 92.0917 14.4667C92.9869 14.5205 93.703 14.7538 94.2221 15.1487C94.7592 15.5795 95.1889 16.1179 95.4933 16.7461C95.8155 17.4102 96.0124 18.1282 96.1019 18.9C96.1915 19.7256 96.2452 20.5333 96.2452 21.3231C96.2452 22.059 96.1736 22.8846 96.0482 23.7641C95.9229 24.6077 95.7081 25.4333 95.3858 26.1872C95.0815 26.9051 94.6518 27.5154 94.1326 28C93.6493 28.4667 93.0406 28.7 92.2707 28.7179Z" fill="#F4F4F4"/>
<path d="M117.191 12.6897C116.564 12.1692 115.813 11.7564 114.989 11.4692C114.166 11.182 113.324 11.0385 112.483 11.0385C111.14 11.0385 109.94 11.1641 108.92 11.4333C107.9 11.6846 106.79 12.1333 105.626 12.7615L105.125 13.0308L106.396 16.0102L107.004 15.7051C107.81 15.2923 108.58 14.9692 109.296 14.7538C109.994 14.5385 110.8 14.4308 111.677 14.4308C112.125 14.4308 112.572 14.5026 113.002 14.6641C113.432 14.8077 113.807 15.0231 114.112 15.2923C114.416 15.5615 114.667 15.8846 114.864 16.2615C115.043 16.6205 115.132 17.0333 115.132 17.482V18.7205H110.621C109.636 18.7205 108.723 18.8641 107.864 19.1333C107.022 19.4205 106.252 19.8333 105.608 20.3897C104.946 20.9461 104.426 21.6461 104.05 22.4538C103.674 23.2615 103.478 24.1949 103.478 25.182C103.442 26.1333 103.603 27.0308 103.961 27.8743C104.301 28.7 104.802 29.4179 105.411 30.0461C106.02 30.6564 106.754 31.159 107.577 31.5179C108.401 31.8769 109.296 32.0743 110.245 32.1102H110.495C112.375 32.1102 114.058 31.7872 115.508 31.141C116.994 30.4769 118.247 29.6513 119.214 28.6641L119.393 28.4846V17.2667C119.393 16.2974 119.178 15.4179 118.784 14.6282C118.355 13.8743 117.836 13.2102 117.191 12.6897ZM111.784 28.7179H111.588C111.033 28.7179 110.567 28.6102 110.119 28.4128C109.672 28.1974 109.26 27.9282 108.92 27.5872C108.58 27.2641 108.329 26.8692 108.15 26.4385C107.971 26.0077 107.882 25.5769 107.882 25.1102C107.882 24.0872 108.204 23.3333 108.866 22.8128C109.564 22.2564 110.424 21.9692 111.534 21.9692C112.304 21.9333 113.073 21.9333 113.807 21.9333H115.043V27.5154C114.828 27.6949 114.47 27.9461 113.825 28.2513C113.217 28.5743 112.536 28.7179 111.784 28.7179Z" fill="#F4F4F4"/>
<path d="M123.887 31.7692H128.309V10.8051L123.887 12.259V31.7692Z" fill="#F4F4F4"/>
<path d="M132.105 4.81027C131.55 4.23591 130.851 3.94873 130.046 3.94873C129.258 3.94873 128.596 4.23591 128.059 4.82822C127.521 5.40258 127.253 6.08463 127.253 6.91027C127.289 7.68206 127.593 8.34617 128.13 8.88463C128.667 9.42309 129.348 9.71027 130.135 9.71027H130.171C130.905 9.69232 131.55 9.42309 132.087 8.88463C132.642 8.32822 132.928 7.66411 132.928 6.87437C132.928 6.06668 132.66 5.38463 132.105 4.81027Z" fill="#F4F4F4"/>
<path d="M123.6 4.81027C123.027 4.23591 122.347 3.94873 121.541 3.94873C120.789 3.94873 120.127 4.23591 119.572 4.81027C119.017 5.38463 118.748 6.06668 118.748 6.87437C118.748 7.66411 119.034 8.32822 119.607 8.88463C120.18 9.44104 120.861 9.71027 121.63 9.71027C122.4 9.71027 123.081 9.42309 123.636 8.86668C124.191 8.31027 124.477 7.64617 124.477 6.85642C124.459 6.06668 124.173 5.36668 123.6 4.81027Z" fill="#F4F4F4"/>
<path d="M135.559 26.3846C134.771 26.3846 134.109 26.6718 133.572 27.2641C133.053 27.8385 132.784 28.5205 132.784 29.3462C132.82 30.118 133.106 30.7821 133.644 31.3205C134.181 31.859 134.843 32.1462 135.631 32.1641H135.667C136.383 32.1462 137.027 31.877 137.564 31.3205C138.119 30.7641 138.388 30.1 138.388 29.3103C138.388 28.5026 138.119 27.8205 137.564 27.2462C137.045 26.6718 136.365 26.3846 135.559 26.3846Z" fill="#F4F4F4"/>
<path d="M155.88 27.3C155.038 27.6949 154.197 28.0539 153.409 28.359C152.747 28.6282 151.995 28.7539 151.171 28.7539H150.921C150.151 28.7539 149.506 28.5564 148.934 28.1616C148.325 27.7308 147.824 27.1923 147.43 26.5462C147.018 25.8821 146.696 25.1282 146.481 24.3206C146.266 23.4949 146.159 22.6693 146.159 21.8616C146.159 21.018 146.266 20.1385 146.463 19.259C146.66 18.3795 146.964 17.5718 147.358 16.8718C147.734 16.1898 148.217 15.6154 148.772 15.1488C149.31 14.718 149.936 14.4847 150.67 14.4488C151.35 14.3949 152.067 14.4667 152.783 14.6641C153.553 14.8616 154.251 15.1308 154.877 15.418L155.414 15.6693L156.882 12.9231L156.381 12.618C155.593 12.1334 154.734 11.7564 153.821 11.4872C152.926 11.2359 152.013 11.0744 151.118 11.0564C150.205 11.0206 149.31 11.1282 148.45 11.3616C147.573 11.5949 146.767 11.9718 146.051 12.4744C144.637 13.4616 143.563 14.8257 142.811 16.5308C142.077 18.2 141.719 19.9949 141.719 21.8795C141.719 23.118 141.898 24.3564 142.256 25.577C142.614 26.7975 143.151 27.8923 143.849 28.8616C144.547 29.8308 145.425 30.6385 146.445 31.2488C147.483 31.859 148.683 32.1821 150.008 32.1821C151.44 32.1821 152.801 31.9847 154.018 31.6077C155.235 31.2308 156.345 30.7103 157.312 30.0821L157.778 29.777L156.435 27.0847L155.88 27.3Z" fill="#F4F4F4"/>
<path d="M174.355 14.6461C173.961 13.8743 173.424 13.2282 172.797 12.6897C172.171 12.1692 171.419 11.7564 170.595 11.4692C169.772 11.182 168.93 11.0385 168.089 11.0385C166.746 11.0385 165.547 11.1641 164.526 11.4333C163.506 11.6846 162.378 12.1333 161.232 12.7615L160.731 13.0308L162.002 16.0102L162.611 15.7051C163.398 15.2923 164.168 14.9692 164.902 14.7538C165.6 14.5385 166.406 14.4308 167.283 14.4308C167.731 14.4308 168.178 14.5026 168.608 14.6641C169.038 14.8077 169.414 15.0231 169.718 15.2923C170.022 15.5615 170.291 15.8846 170.47 16.2615C170.649 16.6205 170.738 17.0154 170.738 17.482V18.7205H166.227C165.242 18.7205 164.311 18.8641 163.488 19.1333C162.646 19.4205 161.876 19.8333 161.232 20.3897C160.57 20.9461 160.05 21.6461 159.674 22.4538C159.298 23.2615 159.102 24.1949 159.102 25.182C159.066 26.1333 159.227 27.0308 159.585 27.8743C159.925 28.7 160.426 29.4179 161.035 30.0461C161.644 30.6564 162.378 31.159 163.183 31.5179C164.007 31.8769 164.902 32.0743 165.851 32.1102H166.102C167.981 32.1102 169.664 31.7872 171.114 31.141C172.6 30.4769 173.853 29.6513 174.82 28.6641L174.999 28.4846V17.2667C174.963 16.2974 174.767 15.4179 174.355 14.6461ZM167.373 28.7179H167.176C166.639 28.7179 166.137 28.6102 165.708 28.4128C165.26 28.1974 164.848 27.9282 164.508 27.5872C164.168 27.2641 163.917 26.8692 163.738 26.4385C163.559 26.0077 163.47 25.559 163.47 25.1102C163.47 24.0872 163.792 23.3333 164.454 22.8128C165.153 22.2564 166.012 21.9692 167.122 21.9692C167.892 21.9333 168.662 21.9333 169.396 21.9333H170.631V27.5154C170.416 27.6949 170.058 27.9461 169.414 28.2513C168.805 28.5743 168.125 28.7179 167.373 28.7179Z" fill="#F4F4F4"/>
<path d="M25.9949 12.3667C24.9028 12.9411 23.936 13.677 23.1662 14.5923C22.3606 15.5257 21.7519 16.6205 21.3401 17.859C20.9284 19.0795 20.7314 20.3718 20.7314 21.7C20.7314 23.0462 20.9105 24.3923 21.2685 25.6667C21.6266 26.959 22.1995 28.1257 22.9693 29.1488C23.7391 30.1718 24.7059 30.9975 25.8516 31.6257C25.9054 31.6436 25.9412 31.6616 25.9949 31.6795V12.3667Z" fill="#ED1B36"/>
<path d="M33.0846 32.0385C33.4248 31.9128 33.7649 31.7692 34.0872 31.6077C35.2509 30.9974 36.2534 30.1538 37.0233 29.1308C37.7931 28.1256 38.366 26.959 38.7419 25.6487C38.7598 25.5949 38.7598 25.559 38.7777 25.5051H25.9951V31.6615C26.2816 31.8051 26.568 31.9308 26.8903 32.0385C27.8033 32.3615 28.8238 32.5231 29.9516 32.5231C31.0795 32.541 32.1358 32.3795 33.0846 32.0385Z" fill="black"/>
<path d="M25.9951 25.5231H38.7777C39.0463 24.5718 39.2253 23.5846 39.279 22.5795V20.9282C39.2253 20.0846 39.0642 19.2769 38.8493 18.4872H25.9951V25.5231Z" fill="#F4F4F4"/>
<path d="M26.8903 11.9718C26.8724 11.9718 26.8724 11.9718 26.8903 11.9718C26.6038 12.0795 26.3353 12.1872 26.0846 12.3128C26.0488 12.3308 26.0309 12.3487 25.9951 12.3667V18.4872H38.8493C38.7956 18.2718 38.7419 18.0564 38.6703 17.859C38.2406 16.6385 37.6319 15.5436 36.8442 14.6103C36.0565 13.659 35.0718 12.9051 33.9261 12.3308C33.6575 12.2051 33.3711 12.0795 33.0846 11.9718C32.1537 11.6487 31.1511 11.4692 30.077 11.4692H29.8979C28.8238 11.4513 27.8033 11.6308 26.8903 11.9718Z" fill="#52B848"/>
</svg>
